<?xml version="1.0" standalone="no"?>
<!DOCTYPE svg PUBLIC "-//W3C//DTD SVG 20010904//EN"
 "http://www.w3.org/TR/2001/REC-SVG-20010904/DTD/svg10.dtd">
<svg version="1.0" xmlns="http://www.w3.org/2000/svg"
 width="338.000000pt" height="338.000000pt" viewBox="0 0 338.000000 338.000000"
 preserveAspectRatio="xMidYMid meet">

<g transform="translate(0.000000,338.000000) scale(0.100000,-0.100000)"
fill="#000000" stroke="none">
<path d="M1150 2900 c-9 -6 -10 -10 -3 -10 6 0 15 5 18 10 8 12 4 12 -15 0z"/>
<path d="M731 2428 c-55 -171 -27 -424 68 -623 48 -102 106 -174 184 -232 154
-113 261 -139 672 -163 277 -16 349 -36 398 -112 15 -23 27 -49 27 -58 1 -45
16 -44 124 13 131 68 242 147 324 230 l62 62 -27 50 c-85 161 -245 287 -418
330 -89 22 -271 43 -435 50 -316 15 -385 46 -420 187 -8 33 -9 56 -1 84 6 21
9 39 8 40 -4 4 -540 174 -548 174 -4 0 -12 -15 -18 -32z"/>
<path d="M1217 1105 c-148 -41 -275 -76 -283 -79 -11 -4 -6 -22 21 -87 19 -46
39 -87 44 -92 6 -6 47 6 107 33 109 46 312 117 417 145 37 10 67 21 67 25 0 3
-11 21 -24 39 -13 18 -30 46 -36 62 -7 16 -20 29 -29 28 -9 -1 -137 -34 -284
-74z"/>
</g>
</svg>
